<svg xmlns="http://www.w3.org/2000/svg" width="70" height="70" viewBox="0 0 70 70">
    <g fill="none" fill-rule="evenodd">
        <path d="M0 0h70v70H0z"/>
        <path fill="#B6B7B7" fill-rule="nonzero" d="M54.4 5.703C52.618 3.884 49.99 3 46.365 3h-21.73C17.575 3 14 6.6 14 13.7v42.6C14 63.5 17.48 67 24.635 67h21.73C53.52 67 57 63.5 57 56.3V13.7c0-3.597-.85-6.21-2.6-7.997zm-16.31 52.34c-.617.626-1.508.957-2.588.957s-1.975-.33-2.589-.958C32.299 57.416 32 56.568 32 55.5c0-2.192 1.309-3.5 3.502-3.5C37.695 52 39 53.308 39 55.5c0 1.068-.305 1.924-.91 2.542z"/>
    </g>
</svg>
