<svg xmlns="http://www.w3.org/2000/svg" width="55" height="60" viewBox="0 0 55 60">
    <g fill="#00A9E0" fill-rule="nonzero">
        <path d="M27.51 33.437c-8.64 0-13.397-4.755-13.397-13.392 0-8.636 4.757-13.39 13.396-13.39 8.639 0 13.396 4.755 13.396 13.391S36.148 33.437 27.51 33.437zm0-23.373c-3.301 0-5.8.798-7.439 2.373-1.69 1.629-2.546 4.188-2.546 7.608s.853 5.98 2.546 7.609c1.635 1.575 4.138 2.373 7.438 2.373s5.8-.798 7.438-2.373c1.69-1.629 2.547-4.188 2.547-7.609 0-3.42-.853-5.98-2.547-7.608-1.635-1.575-4.137-2.373-7.438-2.373z"/>
        <path d="M41.014 26.487h-8.073a1.705 1.705 0 1 1 0-3.41h8.073c.774 0 1.34-.17 1.682-.51.433-.427.524-1.184.524-1.743v-.027l.026-1.654c-.006-5.336-1.37-9.359-4.06-11.953-2.604-2.51-6.537-3.78-11.691-3.78-4.66 0-8.33 1.04-10.908 3.094-2.616 2.084-4.19 5.303-4.677 9.568a1.706 1.706 0 0 1-3.39-.39c.597-5.199 2.592-9.182 5.94-11.847C17.654 1.291 22.042 0 27.495 0c6.067 0 10.799 1.593 14.058 4.735C44.94 8 46.658 12.851 46.658 19.157v.026l-.027 1.655c0 1.728-.534 3.164-1.535 4.154-1.001.99-2.379 1.495-4.082 1.495z"/>
        <path d="M30.94 22.815c-1.213 0-2 .63-2 1.985 0 .651.182 1.134.504 1.461.35.354.865.524 1.495.524.63 0 1.146-.17 1.495-.524.324-.326.505-.81.505-1.46.002-1.356-.786-1.986-1.999-1.986z"/>
        <path d="M30.94 27.637c-.871 0-1.599-.268-2.101-.777-.503-.509-.752-1.193-.752-2.06 0-1.75 1.094-2.837 2.854-2.837s2.854 1.088 2.854 2.837c0 .863-.256 1.556-.752 2.06-.495.505-1.231.777-2.103.777zm0-3.97c-.815 0-1.148.329-1.148 1.133 0 .398.086.688.256.862.222.224.606.271.889.271.283 0 .667-.047.889-.271.17-.17.255-.464.255-.862.007-.804-.325-1.132-1.14-1.132zM53.266 59.924H1.706A1.705 1.705 0 0 1 0 58.22v-4.986c0-4.768 1.496-8.84 4.327-11.778 3.08-3.196 7.648-4.884 13.21-4.884h19.897c5.562 0 10.13 1.69 13.21 4.884 2.83 2.937 4.327 7.01 4.327 11.778v4.986c0 .941-.763 1.704-1.705 1.704zM3.41 56.515h48.145v-3.281c0-3.868-1.167-7.123-3.373-9.413-2.456-2.548-6.074-3.84-10.753-3.84H17.542c-4.68 0-8.298 1.292-10.753 3.84-2.207 2.287-3.378 5.545-3.378 9.413v3.281z"/>
    </g>
</svg>
